<?xml version="1.0" encoding="UTF-8" ?>
<!DOCTYPE svg PUBLIC "-//W3C//DTD SVG 1.1//EN" "http://www.w3.org/Graphics/SVG/1.1/DTD/svg11.dtd">
<svg width="256pt" height="256pt" viewBox="0 0 256 256" version="1.1" xmlns="http://www.w3.org/2000/svg">
<g id="#25a9e1ff">
<path fill="#25a9e1" opacity="1.00" d=" M 110.00 16.58 C 112.69 14.39 116.37 15.60 119.54 15.39 L 119.47 16.49 C 120.06 16.58 121.25 16.74 121.84 16.83 C 122.94 18.05 124.45 18.61 126.02 18.94 C 127.00 19.98 127.95 21.05 128.90 22.12 C 130.25 23.35 131.71 24.47 133.40 25.20 C 133.41 24.80 133.42 24.00 133.43 23.60 C 137.78 23.62 142.13 23.62 146.47 23.59 C 146.45 23.87 146.41 24.43 146.39 24.71 L 147.54 24.51 C 147.59 24.83 147.67 25.47 147.71 25.80 C 149.69 27.47 151.52 29.30 153.19 31.28 C 153.51 31.33 154.15 31.42 154.47 31.46 L 154.34 32.65 L 155.51 32.54 C 155.49 33.15 155.45 34.37 155.43 34.98 C 156.32 34.68 158.11 34.08 159.00 33.78 C 159.90 33.74 161.70 33.67 162.60 33.63 L 162.39 34.44 C 163.29 34.36 165.10 34.20 166.00 34.11 C 168.31 33.22 170.35 34.23 172.09 35.76 C 172.41 35.61 173.06 35.32 173.38 35.18 L 173.42 36.53 L 174.73 36.34 L 174.46 37.11 C 174.82 37.47 175.54 38.20 175.90 38.56 L 176.69 38.29 L 176.40 39.59 L 177.71 39.29 L 177.44 40.08 C 177.80 40.43 178.52 41.12 178.88 41.46 L 179.48 41.38 C 179.44 42.82 179.41 44.25 179.38 45.69 L 180.76 45.64 C 180.64 46.07 180.41 46.95 180.29 47.39 L 181.30 47.42 C 181.34 48.77 181.38 50.11 181.43 51.46 L 182.69 51.39 C 182.33 53.95 183.67 57.59 180.81 59.09 C 180.74 61.21 180.68 63.32 180.58 65.44 L 179.39 65.33 C 179.40 66.78 179.41 68.22 179.42 69.67 L 180.62 69.51 C 180.69 71.55 180.72 73.59 180.71 75.64 L 181.80 75.44 L 181.12 76.73 L 182.54 76.49 C 182.65 79.49 182.66 82.49 182.58 85.49 L 181.28 85.43 C 181.31 86.22 181.37 87.80 181.40 88.59 L 180.43 88.62 C 180.54 89.09 180.76 90.04 180.87 90.52 L 179.48 90.43 C 179.44 92.12 179.41 93.81 179.39 95.49 L 178.27 95.33 L 178.44 96.58 C 178.07 96.57 177.31 96.54 176.94 96.52 C 176.23 98.49 175.55 100.56 173.99 102.03 C 172.91 103.09 171.88 104.19 170.91 105.35 C 168.29 106.14 165.15 105.71 163.02 107.66 C 160.97 107.62 158.92 107.58 156.87 107.54 C 156.28 107.88 155.09 108.56 154.50 108.90 L 154.49 110.43 L 153.91 110.46 C 153.51 111.83 152.96 113.20 151.75 114.07 L 151.59 114.24 C 151.25 114.60 150.57 115.31 150.23 115.67 L 149.44 115.38 L 149.69 116.61 L 148.43 116.53 L 148.46 117.90 C 148.01 117.76 147.10 117.49 146.65 117.35 L 146.41 118.62 C 145.98 118.56 145.12 118.43 144.69 118.37 L 144.70 119.22 C 143.28 119.61 141.72 119.92 140.87 121.33 C 136.08 121.48 131.28 121.37 126.49 121.43 L 126.65 120.33 L 125.48 120.52 C 125.44 120.03 125.35 119.05 125.31 118.56 C 124.85 118.58 123.94 118.61 123.49 118.63 L 123.57 117.64 C 121.99 117.51 120.40 117.39 118.81 117.28 C 118.48 117.99 117.82 119.39 117.49 120.09 C 117.57 120.41 117.72 121.05 117.79 121.36 L 116.44 121.39 L 116.43 122.29 C 115.58 122.67 114.74 123.07 113.90 123.47 L 112.70 123.27 L 112.39 124.78 C 111.93 124.66 111.02 124.44 110.56 124.33 L 110.33 125.63 L 108.72 125.32 L 108.62 126.52 C 104.50 126.40 100.39 126.57 96.28 126.33 C 94.49 125.12 92.67 123.97 90.78 122.93 C 90.19 122.83 89.01 122.62 88.43 122.52 L 88.55 121.36 L 87.79 121.62 C 87.45 121.26 86.76 120.55 86.41 120.20 L 86.55 119.44 L 85.16 119.43 C 85.29 118.96 85.55 118.02 85.68 117.55 L 84.41 117.42 C 84.48 116.97 84.62 116.07 84.69 115.62 L 83.49 115.65 C 83.46 114.97 83.42 113.61 83.39 112.93 C 82.86 112.60 81.79 111.95 81.26 111.62 C 82.05 109.66 80.88 109.77 78.76 111.62 L 77.90 109.95 L 77.69 111.32 C 76.62 111.33 74.47 111.35 73.40 111.36 L 73.26 110.45 L 71.63 110.90 L 71.45 109.77 C 70.12 109.39 68.81 108.95 67.50 108.52 C 67.50 108.37 67.50 108.07 67.50 107.92 C 65.05 107.43 63.42 105.49 61.59 103.99 C 61.46 102.83 61.34 101.68 61.21 100.53 C 60.79 100.56 59.96 100.63 59.55 100.66 L 59.65 99.80 C 59.30 99.45 58.60 98.73 58.25 98.37 L 57.70 98.53 C 57.66 96.87 57.60 95.21 57.54 93.55 L 56.35 93.66 C 56.35 91.76 56.36 89.86 56.34 87.96 C 53.29 86.74 54.86 82.90 54.41 80.41 L 55.70 80.58 L 55.23 79.35 L 56.39 79.60 C 56.37 77.54 56.35 75.48 56.36 73.41 L 57.77 73.39 C 57.66 72.94 57.43 72.03 57.31 71.58 L 58.63 71.36 C 58.52 70.92 58.30 70.02 58.19 69.57 L 59.47 69.69 C 59.52 69.02 59.62 67.69 59.68 67.03 C 60.81 66.04 61.93 65.04 63.04 64.03 C 63.67 63.34 64.32 62.65 64.96 61.97 C 66.33 60.61 67.70 59.26 69.09 57.93 C 69.57 56.91 70.05 55.90 70.54 54.89 C 71.03 53.74 71.49 52.58 71.92 51.42 L 72.79 51.61 L 72.19 50.35 L 73.00 50.59 C 73.45 49.29 74.00 48.04 74.66 46.84 C 74.59 46.55 74.44 45.95 74.37 45.66 L 75.30 45.52 C 76.10 43.82 76.92 42.12 77.69 40.41 L 78.11 40.46 C 78.46 40.12 79.14 39.45 79.49 39.11 L 79.31 38.39 L 80.61 38.46 C 80.61 38.09 80.63 37.34 80.63 36.97 C 81.20 36.69 82.33 36.12 82.89 35.84 C 84.42 35.24 85.93 34.60 87.48 34.04 L 87.42 33.25 L 88.69 33.82 L 88.50 32.46 C 90.82 32.42 93.13 32.40 95.44 32.39 C 95.45 30.72 95.46 29.06 95.47 27.39 L 96.16 27.58 C 96.54 27.23 97.29 26.54 97.67 26.19 L 97.31 25.36 L 98.64 25.62 L 98.50 24.27 C 98.94 24.31 99.84 24.40 100.28 24.44 C 100.40 23.13 100.52 21.81 100.64 20.49 C 101.39 20.47 102.90 20.43 103.65 20.41 L 103.34 19.79 C 103.72 19.44 104.47 18.74 104.84 18.39 L 105.64 18.54 L 105.56 17.06 C 106.00 17.20 106.87 17.48 107.31 17.62 L 107.39 16.63 C 108.04 16.62 109.35 16.59 110.00 16.58 M 85.16 43.20 C 80.79 46.63 78.41 51.82 76.68 56.95 C 76.33 59.26 76.76 62.09 75.00 63.90 C 72.35 65.58 69.15 66.51 67.03 68.96 C 60.53 75.93 59.74 87.31 64.81 95.30 C 67.41 99.69 72.08 102.13 76.91 103.25 C 79.63 102.34 82.50 102.23 85.34 102.22 C 86.95 107.67 89.10 113.56 94.27 116.62 C 97.71 119.20 102.15 118.55 106.16 118.52 C 111.80 115.72 115.46 110.41 118.02 104.84 C 121.68 107.01 124.30 110.66 128.31 112.26 C 133.05 114.44 138.78 113.66 143.09 110.86 C 147.86 108.06 150.38 102.97 152.77 98.21 C 156.84 99.05 161.31 100.39 165.25 98.32 C 171.91 95.57 175.15 88.50 176.28 81.80 C 176.27 80.60 176.25 79.40 176.24 78.20 C 175.37 74.77 174.83 71.11 172.69 68.18 C 169.71 63.63 164.52 60.08 158.88 60.64 C 153.74 60.88 150.23 65.15 145.80 67.18 C 144.07 61.98 142.81 56.16 138.48 52.39 C 135.74 49.46 131.67 48.72 127.96 47.74 C 123.87 48.81 120.33 51.63 116.02 51.85 C 112.13 43.66 103.53 37.40 94.16 38.60 C 91.01 39.81 87.74 40.95 85.16 43.20 Z" />
</g>
<g id="#ffffffff">
<path fill="#ffffff" opacity="1.00" d=" M 85.16 43.20 C 87.74 40.95 91.01 39.81 94.16 38.60 C 103.53 37.40 112.13 43.66 116.02 51.85 C 120.33 51.63 123.87 48.81 127.96 47.74 C 131.67 48.72 135.74 49.46 138.48 52.39 C 142.81 56.16 144.07 61.98 145.80 67.18 C 150.23 65.15 153.74 60.88 158.88 60.64 C 164.52 60.08 169.71 63.63 172.69 68.18 C 174.83 71.11 175.37 74.77 176.24 78.20 C 176.25 79.40 176.27 80.60 176.28 81.80 C 175.15 88.50 171.91 95.57 165.25 98.32 C 161.31 100.39 156.84 99.05 152.77 98.21 C 150.38 102.97 147.86 108.06 143.09 110.86 C 138.78 113.66 133.05 114.44 128.31 112.26 C 124.30 110.66 121.68 107.01 118.02 104.84 C 115.46 110.41 111.80 115.72 106.16 118.52 C 102.15 118.55 97.71 119.20 94.27 116.62 C 89.10 113.56 86.95 107.67 85.34 102.22 C 82.50 102.23 79.63 102.34 76.91 103.25 C 72.08 102.13 67.41 99.69 64.81 95.30 C 59.74 87.31 60.53 75.93 67.03 68.96 C 69.15 66.51 72.35 65.58 75.00 63.90 C 76.76 62.09 76.33 59.26 76.68 56.95 C 78.41 51.82 80.79 46.63 85.16 43.20 Z" />
</g>
<g id="#000000ff">
<path fill="#000000" opacity="1.00" d=" M 47.34 155.34 C 56.97 150.98 68.20 151.14 78.11 154.46 C 77.24 158.11 76.32 161.75 75.39 165.39 C 68.45 162.93 60.34 162.02 53.64 165.66 C 48.29 168.41 45.30 174.26 44.66 180.07 C 43.66 187.56 45.70 196.26 52.35 200.63 C 59.18 205.10 67.91 204.07 75.35 201.91 C 76.05 205.46 76.73 209.02 77.44 212.57 C 68.29 215.46 58.20 216.00 49.01 213.02 C 41.32 210.55 34.84 204.46 32.14 196.81 C 29.22 188.60 29.32 179.33 32.39 171.18 C 35.04 164.19 40.54 158.41 47.34 155.34 Z" />
<path fill="#000000" opacity="1.00" d=" M 106.23 152.26 C 114.16 151.22 122.72 152.96 128.98 158.13 C 135.21 163.24 138.61 171.14 139.29 179.05 C 140.28 189.54 137.56 201.16 129.30 208.28 C 117.42 218.27 96.85 217.40 87.34 204.52 C 79.58 193.80 79.08 178.65 85.00 166.99 C 89.03 158.90 97.32 153.37 106.23 152.26 M 106.30 163.52 C 100.45 165.30 97.20 171.31 96.13 176.97 C 94.71 184.39 95.32 192.84 99.98 199.05 C 104.22 204.86 113.56 205.82 118.80 200.87 C 123.39 196.59 124.89 190.02 125.01 183.97 C 125.05 177.62 123.60 170.66 118.77 166.16 C 115.53 163.02 110.54 162.27 106.30 163.52 Z" />
<path fill="#000000" opacity="1.00" d=" M 150.83 153.00 C 156.95 153.00 163.06 153.00 169.17 153.00 C 173.30 167.08 177.61 181.13 180.32 195.56 C 183.75 181.19 188.08 167.07 192.72 153.05 C 198.70 152.96 204.68 153.01 210.66 153.00 C 211.77 173.33 212.80 193.68 214.02 214.00 C 209.54 214.00 205.06 214.00 200.58 214.00 C 199.92 197.77 199.25 181.53 199.13 165.29 C 194.70 181.29 189.63 197.11 184.73 212.99 C 181.16 213.00 177.58 213.00 174.01 213.00 C 169.76 197.14 165.02 181.39 161.90 165.25 C 161.22 181.50 160.51 197.76 159.68 214.00 C 155.45 214.00 151.22 214.00 146.99 214.00 C 148.32 193.67 149.67 173.34 150.83 153.00 Z" />
</g>
</svg>
